<?xml version="1.0" standalone="no"?><!DOCTYPE svg PUBLIC "-//W3C//DTD SVG 1.1//EN" "http://www.w3.org/Graphics/SVG/1.1/DTD/svg11.dtd"><svg t="1585034191692" class="icon" viewBox="0 0 1092 1024" version="1.1" xmlns="http://www.w3.org/2000/svg" p-id="6737" xmlns:xlink="http://www.w3.org/1999/xlink" width="213.28125" height="200"><defs><style type="text/css"></style></defs><path d="M1089.289912 48.700313a45.101214 45.101214 0 0 1-45.15745 45.044978H46.057224a45.15745 45.15745 0 0 1 0-90.202428h998.131474c24.912516 0 45.101214 20.188698 45.101214 45.15745z" p-id="6738"></path><path d="M45.15745 33.404141c24.85628 0 45.044978 20.188698 45.044977 45.157449v682.985337a45.15745 45.15745 0 0 1-90.202427 0V78.56159c0-24.968752 20.188698-45.15745 45.15745-45.157449zM1045.257181 3.599099c24.800044 0 45.044978 20.188698 45.044977 45.15745v327.967928a45.15745 45.15745 0 0 1-90.202427 0V48.700313c0-24.912516 20.244934-45.101214 45.15745-45.101214z" p-id="6739"></path><path d="M312.671756 772.063046a45.044978 45.044978 0 0 1-45.15745 45.044978H45.101214a45.15745 45.15745 0 0 1 0-90.202428h222.469328c24.912516 0.056236 45.101214 20.244934 45.101214 45.15745zM305.304849 924.912296h90.427371c29.017738 0 50.387391 20.413642 50.387391 47.800538 0 27.443133-21.369652 47.800538-51.174694 47.800539H212.346861c-28.005492 0-49.543852-20.30117-50.331154-47.800539 0-27.218189 21.425888-47.800538 50.331154-48.644077 31.660827 0 62.365643 0.899775 93.07046 0.899775h-0.112472zM1086.590587 601.387006c-5.173705-23.844033-16.252183-33.066725-40.995991-34.022736-22.494371-0.562359-43.807787-9.672579-59.778791-25.474875-29.017738-29.13021-37.565599-62.365643-22.944258-101.61832 11.078478-29.017738 4.27393-46.000989-23.05673-61.522105-24.631336-13.609094-49.375144-28.005492-74.062716-41.727058-25.587347-13.609094-45.269921-11.978253-65.796035 8.547861a209.253885 209.253885 0 0 1-35.709814 26.37465c-23.844033 14.508869-47.688066 14.508869-71.700807 0-14.508869-8.435389-27.218189-19.682575-39.983745-30.64858-17.151958-15.239936-36.665825-18.670328-56.460871-7.59185-29.017738 15.352408-58.82278 31.548355-87.840518 47.800538-19.682575 11.078478-26.543358 31.548355-19.682575 52.918007 1.743314 5.061233 3.430392 9.335164 5.11747 14.50887 16.195947 57.135702-26.430886 116.070954-85.366138 117.758031-24.743808 0.787303-36.665825 11.978253-41.783294 35.822286a355.41106 355.41106 0 0 0 0 140.814762c4.217695 24.687572 16.252183 34.810039 40.995991 36.665824 29.861277 1.630842 52.861772 14.508869 70.857268 38.352903 20.357406 28.117964 23.900269 58.879016 11.134714 91.27091-9.447636 25.587347-2.699325 44.370147 21.200945 58.091713 26.543358 14.508869 52.074469 29.861277 78.56159 44.257675 22.213191 11.978253 41.83953 8.547861 59.778791-9.335164 13.834038-13.834038 29.748806-25.587347 47.013235-34.922511 17.26443-9.447636 38.127959-9.447636 55.336152 0 17.883025 9.11022 34.022736 21.088473 47.800539 35.709814 17.039486 17.039486 37.565599 21.313416 58.991487 9.335164 27.105717-14.508869 54.605085-29.861277 81.87951-45.269922 23.731561-13.496623 30.64858-33.179197 20.413642-58.766544-23.956505-62.365643 17.770553-125.51859 84.466363-128.049206 22.944258-0.899775 34.135208-14.508869 38.465374-33.179197 5.061233-24.800044 8.435389-48.531605 7.704322-74.231424 4.161459-22.944258 0.787303-47.800538-4.386402-71.700808l-0.168708-0.168708z m-70.126201 122.144434c-0.787303 5.904772-4.27393 6.692075-10.234939 7.591851-61.409633 11.078478-99.031468 48.644077-108.479104 109.266406-3.31792 18.7828 1.012247 36.665825 7.029491 54.605086 1.630842 5.061233 1.630842 8.435389-3.542863 11.978252a3007.497391 3007.497391 0 0 0-66.583338 36.665825c-1.743314 0.787303-2.530617 1.630842-3.430392 1.630842-4.27393 0-6.017244-3.430392-8.547861-5.061234a227.193146 227.193146 0 0 0-35.709814-28.117963c-37.453128-24.687572-75.018727-25.474875-112.696798-0.787303a201.943215 201.943215 0 0 0-36.665824 28.905266c-5.061233 5.173705-7.704322 6.017244-14.50887 1.743314-19.570103-11.865781-40.096216-22.944258-60.509857-34.135208-6.017244-3.31792-6.917019-5.904772-4.273931-11.978252 26.487122-70.744797-19.626339-152.568071-101.562085-163.759021-6.748311-0.731067-8.435389-3.374156-10.122466-10.178702a253.005437 253.005437 0 0 1 0-94.701302c0.899775-6.017244 3.430392-8.547861 9.391399-9.447636a123.156681 123.156681 0 0 0 89.865012-55.561096 123.156681 123.156681 0 0 0 13.384151-104.767532c-2.530617-7.704322-1.743314-11.978253 5.904772-15.239937 21.425888-11.19095 42.626833-23.05673 63.152947-35.034982 5.173705-3.542863 8.547861-2.643089 13.721566 1.630841 15.46488 14.790049 32.898017 27.218189 52.018233 36.665825 30.64858 14.621341 59.778791 11.19095 88.740293-4.161459a228.317865 228.317865 0 0 0 40.995991-29.861277c5.173705-5.173705 10.234939-6.017244 17.039486-1.743314 19.795046 11.978253 40.208688 22.944258 59.778791 33.179197 6.804547 3.430392 7.704322 6.804547 5.173705 13.609095-24.687572 76.762041 22.944258 151.049701 103.305398 162.128178 5.904772 0.899775 7.59185 3.542863 8.435389 7.704322a335.728486 335.728486 0 0 1-0.899774 97.288154h-0.168708z m0 0" p-id="6740"></path><path d="M726.230765 519.001373a143.73903 143.73903 0 0 0-143.457851 143.345379c0 76.762041 58.879016 144.188918 143.457851 144.188917 90.371135 0 144.188918-75.131199 143.345379-142.558076-0.843539-80.923499-63.996485-144.976221-143.345379-144.97622z m-0.956011 215.833489a72.600582 72.600582 0 0 1-72.038223-72.937998 72.76929 72.76929 0 0 1 73.05047-72.150695c39.196441 0 72.48811 33.179197 72.48811 71.700808-0.899775 40.995991-34.078972 74.28766-73.500357 73.387885z m0 0" p-id="6741"></path></svg>